<svg width="121" height="22" viewBox="0 0 121 22" fill="none" xmlns="http://www.w3.org/2000/svg">
<path d="M20.1401 0L1.8705 0C0.872214 0 0 0.718294 0 1.70485L0 20.015C0 21.0069 0.872214 21.8909 1.8705 21.8909L20.1347 21.8909C21.1384 21.8909 21.8909 21.0011 21.8909 20.015L21.8909 1.70485C21.8967 0.718294 21.1384 0 20.1401 0ZM6.78568 18.2471L3.64962 18.2471L3.64962 8.49639L6.78568 8.49639L6.78568 18.2471ZM5.32612 7.01387H5.30365C4.29999 7.01387 3.6501 6.26675 3.6501 5.3315C3.6501 4.37915 4.31709 3.64962 5.34323 3.64962C6.36936 3.64962 6.99726 4.37377 7.01973 5.3315C7.01924 6.26675 6.36936 7.01387 5.32612 7.01387ZM18.2471 18.2471L15.111 18.2471L15.111 12.9156C15.111 11.6383 14.6547 10.7656 13.52 10.7656C12.6532 10.7656 12.1401 11.352 11.9119 11.9232C11.8264 12.1284 11.8035 12.4079 11.8035 12.6933L11.8035 18.2471L8.66741 18.2471L8.66741 8.49639L11.8035 8.49639L11.8035 9.85333C12.2599 9.20344 12.9728 8.2682 14.6317 8.2682C16.6903 8.2682 18.2476 9.62514 18.2476 12.5506L18.2471 18.2471Z" fill="white"/>
<path d="M70.676 6.66217C69.8654 7.01414 69.0077 7.24603 68.1301 7.3505C69.0524 6.8108 69.746 5.9534 70.0808 4.93909C69.2088 5.44863 68.2564 5.80615 67.2643 5.99633C66.8465 5.55883 66.3441 5.21078 65.7876 4.97335C65.231 4.73591 64.632 4.61405 64.0268 4.61517C61.5768 4.61517 59.594 6.56769 59.594 8.97461C59.5923 9.3094 59.6307 9.64319 59.7084 9.96886C57.9515 9.88656 56.2312 9.43871 54.6574 8.65395C53.0837 7.86919 51.6912 6.76482 50.5691 5.41147C50.1754 6.07467 49.9672 6.83135 49.9662 7.60244C49.9662 9.11407 50.7555 10.4502 51.9472 11.2331C51.2411 11.2163 50.5495 11.0296 49.9311 10.6887V10.7427C49.9311 12.8572 51.4619 14.6162 53.4878 15.0166C53.1068 15.1181 52.7142 15.1695 52.32 15.1696C52.0402 15.1701 51.761 15.143 51.4866 15.0886C52.0498 16.8207 53.689 18.0804 55.6308 18.1164C54.053 19.3315 52.1158 19.9883 50.1238 19.9834C49.7702 19.9829 49.417 19.9619 49.0658 19.9204C51.0923 21.2135 53.4479 21.8975 55.8523 21.891C64.0174 21.891 68.4781 15.2461 68.4781 9.48298C68.4781 9.29403 68.4731 9.10507 68.4641 8.92062C69.3299 8.3052 70.0789 7.54041 70.676 6.66217Z" fill="white"/>
<path fill-rule="evenodd" clip-rule="evenodd" d="M121 11.18C121 5.19302 115.817 0.338606 109.425 0.338606C103.034 0.338606 97.851 5.19302 97.851 11.18C97.851 16.591 102.083 21.0761 107.617 21.8902L107.617 14.3148L104.677 14.3148L104.677 11.18L107.617 11.18V8.79148C107.617 6.07485 109.345 4.57303 111.989 4.57303C113.255 4.57303 114.58 4.78502 114.58 4.78502L114.58 7.45325L113.12 7.45325C111.683 7.45325 111.233 8.28862 111.233 9.14722V11.18L114.443 11.18L113.931 14.3148L111.234 14.3148V21.8911C116.768 21.0776 121 16.5924 121 11.18Z" fill="white"/>
</svg>
