<svg width="151" height="20" viewBox="0 0 151 20" fill="none" xmlns="http://www.w3.org/2000/svg">
<path d="M14.0765 1.74141C15.1736 1.74456 16.2248 2.16534 17.0006 2.91186C17.7764 3.65837 18.2137 4.66996 18.2169 5.72568V13.6934C18.2137 14.7491 17.7764 15.7607 17.0006 16.5072C16.2248 17.2537 15.1736 17.6745 14.0765 17.6777H5.7964C4.69928 17.6745 3.64804 17.2537 2.87226 16.5072C2.09648 15.7607 1.6592 14.7491 1.65592 13.6934V5.72568C1.6592 4.66996 2.09648 3.65837 2.87226 2.91186C3.64804 2.16534 4.69928 1.74456 5.7964 1.74141H14.0765ZM14.0765 0.147955H5.7964C2.60831 0.147955 0 2.65787 0 5.72568V13.6934C0 16.7612 2.60831 19.2711 5.7964 19.2711H14.0765C17.2645 19.2711 19.8729 16.7612 19.8729 13.6934V5.72568C19.8729 2.65787 17.2645 0.147955 14.0765 0.147955Z" fill="white"/>
<path d="M15.3185 5.72597C15.0729 5.72597 14.8328 5.65587 14.6285 5.52454C14.4242 5.39321 14.265 5.20655 14.171 4.98815C14.077 4.76976 14.0524 4.52945 14.1004 4.2976C14.1483 4.06576 14.2666 3.85279 14.4403 3.68564C14.614 3.51849 14.8353 3.40466 15.0762 3.35854C15.3172 3.31242 15.5669 3.33609 15.7939 3.42655C16.0208 3.51702 16.2148 3.67021 16.3513 3.86676C16.4878 4.06331 16.5606 4.29438 16.5606 4.53077C16.561 4.68782 16.5291 4.84339 16.4668 4.98855C16.4045 5.13371 16.313 5.26561 16.1976 5.37666C16.0822 5.48771 15.9451 5.57573 15.7943 5.63568C15.6434 5.69562 15.4818 5.72631 15.3185 5.72597ZM9.93647 6.52248C10.5916 6.52248 11.232 6.70942 11.7767 7.05965C12.3214 7.40987 12.7459 7.90767 12.9966 8.49008C13.2473 9.07249 13.3129 9.71335 13.1851 10.3316C13.0573 10.9499 12.7418 11.5178 12.2786 11.9636C11.8154 12.4094 11.2252 12.7129 10.5827 12.8359C9.94014 12.9589 9.27415 12.8958 8.66891 12.6545C8.06367 12.4133 7.54636 12.0048 7.1824 11.4806C6.81844 10.9565 6.62418 10.3402 6.62418 9.70982C6.62511 8.86476 6.97439 8.05458 7.59536 7.45703C8.21633 6.85948 9.05828 6.52339 9.93647 6.52248ZM9.93647 4.92903C8.95385 4.92903 7.99329 5.20942 7.17627 5.73474C6.35926 6.26006 5.72247 7.00671 5.34644 7.88029C4.9704 8.75386 4.87202 9.71512 5.06372 10.6425C5.25541 11.5699 5.72859 12.4217 6.42341 13.0903C7.11823 13.759 8.00348 14.2143 8.96722 14.3987C9.93095 14.5832 10.9299 14.4885 11.8377 14.1267C12.7455 13.7648 13.5215 13.1521 14.0674 12.3659C14.6133 11.5797 14.9047 10.6554 14.9047 9.70982C14.9047 8.44187 14.3812 7.22586 13.4495 6.32929C12.5178 5.43272 11.2541 4.92903 9.93647 4.92903Z" fill="white"/>
<path fill-rule="evenodd" clip-rule="evenodd" d="M64.4089 9.76714C64.4089 4.4562 59.8114 0.149908 54.1413 0.149908C48.4713 0.149908 43.8738 4.4562 43.8738 9.76714C43.8738 14.5672 47.6278 18.5459 52.537 19.268V12.548H49.9293V9.76714H52.537V7.64835C52.537 5.23846 54.0703 3.90621 56.4153 3.90621C57.5388 3.90621 58.7141 4.09426 58.7141 4.09426V6.46122H57.4187C56.144 6.46122 55.7452 7.20226 55.7452 7.96391V9.76714H58.5926L58.1379 12.548H55.7457V19.2689C60.6549 18.5472 64.4089 14.5685 64.4089 9.76714Z" fill="white"/>
<path d="M107.58 3.86283C106.861 4.17506 106.1 4.38076 105.321 4.47344C106.14 3.99468 106.755 3.23408 107.052 2.3343C106.278 2.78631 105.434 3.10346 104.553 3.27217C104.183 2.88407 103.737 2.57532 103.243 2.36469C102.75 2.15407 102.218 2.04597 101.682 2.04696C99.5081 2.04696 97.7493 3.77902 97.7493 5.91416C97.7477 6.21115 97.7818 6.50725 97.8507 6.79615C96.2922 6.72314 94.7661 6.32585 93.3701 5.62971C91.9741 4.93356 90.7388 3.95388 89.7434 2.75335C89.3941 3.34166 89.2095 4.0129 89.2086 4.69693C89.2086 6.03788 89.9087 7.22318 90.9659 7.9176C90.3395 7.90274 89.726 7.73709 89.1775 7.4347V7.48259C89.1775 9.35832 90.5353 10.9188 92.3325 11.274C91.9946 11.364 91.6463 11.4096 91.2965 11.4097C91.0484 11.4101 90.8007 11.386 90.5573 11.3378C91.0569 12.8743 92.5111 13.9918 94.2336 14.0237C92.8339 15.1016 91.1155 15.6842 89.3484 15.6799C89.0347 15.6795 88.7213 15.6608 88.4098 15.6241C90.2075 16.7711 92.2972 17.3779 94.4301 17.3721C101.673 17.3721 105.63 11.4775 105.63 6.36513C105.63 6.19751 105.626 6.02989 105.618 5.86627C106.386 5.32033 107.05 4.6419 107.58 3.86283Z" fill="white"/>
<path d="M149.447 0H133.24C132.355 0 131.581 0.637189 131.581 1.51235V17.755C131.581 18.635 132.355 19.4191 133.24 19.4191H149.442C150.332 19.4191 151 18.6298 151 17.755V1.51235C151.005 0.637189 150.332 0 149.447 0ZM137.6 16.1868H134.818V7.53704H137.6V16.1868ZM136.306 6.22191H136.286C135.395 6.22191 134.819 5.55915 134.819 4.7295C134.819 3.88469 135.411 3.23753 136.321 3.23753C137.231 3.23753 137.788 3.87992 137.808 4.7295C137.808 5.55915 137.231 6.22191 136.306 6.22191ZM147.768 16.1868H144.986V11.4573C144.986 10.3242 144.581 9.55003 143.574 9.55003C142.805 9.55003 142.35 10.0702 142.148 10.5769C142.072 10.759 142.052 11.0069 142.052 11.26V16.1868H139.27V7.53704H142.052V8.74076C142.456 8.16425 143.089 7.33461 144.56 7.33461C146.387 7.33461 147.768 8.53833 147.768 11.1335L147.768 16.1868Z" fill="white"/>
</svg>
