<svg width="51" height="52" viewBox="0 0 51 52" fill="none" xmlns="http://www.w3.org/2000/svg">
<path d="M25.5 0L26.9838 17.4784L34.3561 1.56156L29.7724 18.4934L42.1439 6.0579L32.0457 20.4009L47.9243 12.9467L33.5295 22.9709L51 21.397L34.0448 25.8934L51 30.3897L33.5295 28.8159L47.9243 38.8401L32.0457 31.3859L42.1439 45.7289L29.7724 33.2934L34.3561 50.2252L26.9838 34.3084L25.5 51.7868L24.0162 34.3084L16.6439 50.2252L21.2276 33.2934L8.85605 45.7289L18.9543 31.3859L3.07567 38.8401L17.4705 28.8159L-3.82786e-06 30.3897L16.9552 25.8934L-3.82786e-06 21.397L17.4705 22.9709L3.07567 12.9467L18.9543 20.4009L8.85605 6.0579L21.2276 18.4934L16.6439 1.56156L24.0162 17.4784L25.5 0Z" fill="white"/>
</svg>
