<svg width="77" height="116" viewBox="0 0 77 116" fill="none" xmlns="http://www.w3.org/2000/svg">
<path d="M2.04764 45H54.4286" stroke="#141414" stroke-width="2" stroke-linecap="round" stroke-linejoin="round"/>
<path d="M32.4286 45V2.91304C32.4286 2.40567 32.2236 1.91908 31.8587 1.56032C31.4939 1.20155 30.999 1 30.483 1H7.13607C6.62007 1 6.1252 1.20155 5.76034 1.56032C5.39547 1.91908 5.19049 2.40567 5.19049 2.91304V45" stroke="#141414" stroke-width="2" stroke-linecap="round" stroke-linejoin="round"/>
<path d="M32.4286 13.5715H48.2857C49.9426 13.5715 51.2857 14.9147 51.2857 16.5715V43.9525H32.4286V13.5715Z" fill="#FFD550" stroke="#141414" stroke-width="2" stroke-linecap="round" stroke-linejoin="round"/>
<path d="M13.5714 10.4285H20.9048" stroke="#141414" stroke-width="2" stroke-linecap="round" stroke-linejoin="round"/>
<path d="M1 40.8096L0.999999 26.1429" stroke="#141414" stroke-width="2" stroke-linecap="round" stroke-linejoin="round"/>
<path d="M55.4762 30.3333L55.4762 15.6666" stroke="#141414" stroke-width="2" stroke-linecap="round" stroke-linejoin="round"/>
<path d="M35.5714 9.38086L42.9048 9.38086" stroke="#141414" stroke-width="2" stroke-linecap="round" stroke-linejoin="round"/>
<path d="M16.7143 26.1428H24.0476" stroke="#141414" stroke-width="2" stroke-linecap="round" stroke-linejoin="round"/>
<path d="M13.5714 35.5715H20.9048" stroke="#141414" stroke-width="2" stroke-linecap="round" stroke-linejoin="round"/>
<path d="M39.7619 35.5715H43.9524" stroke="#141414" stroke-width="2" stroke-linecap="round" stroke-linejoin="round"/>
<path d="M39.7619 26.1428H43.9524" stroke="#141414" stroke-width="2" stroke-linecap="round" stroke-linejoin="round"/>
</svg>
