<svg width="87" height="39" viewBox="0 0 87 39" fill="none" xmlns="http://www.w3.org/2000/svg">
<path d="M12.7236 0H16.653V38.7947H11.9752L3.92936 8.73192V38.7947H0V0H4.98967L12.7236 29.0024V0Z" fill="white"/>
<path d="M24.3841 0H30.7459C34.0308 0 35.6732 1.64243 35.6732 4.9273V33.8674C35.6732 37.1522 34.0308 38.7947 30.7459 38.7947H24.3841C21.0992 38.7947 19.4568 37.1522 19.4568 33.8674V4.9273C19.4568 1.64243 21.0992 0 24.3841 0ZM31.432 33.1813V5.61338C31.432 4.78176 31.3072 4.26201 31.0578 4.0541C30.8083 3.80462 30.2885 3.67988 29.4985 3.67988H25.6315C24.8415 3.67988 24.3217 3.80462 24.0722 4.0541C23.8227 4.26201 23.698 4.78176 23.698 5.61338V33.1813C23.698 34.0129 23.8227 34.5534 24.0722 34.8029C24.3217 35.0108 24.8415 35.1148 25.6315 35.1148H29.4985C30.2885 35.1148 30.8083 35.0108 31.0578 34.8029C31.3072 34.5534 31.432 34.0129 31.432 33.1813Z" fill="white"/>
<path d="M42.743 22.5782V38.7947H38.5018V0H49.7909C53.0758 0 54.7182 1.64243 54.7182 4.9273V17.6509C54.7182 20.6032 53.4292 22.2248 50.8512 22.5159L56.7141 38.7947H52.0986L46.4229 22.5782H42.743ZM42.743 3.67988V18.8984H48.5435C49.3751 18.8984 49.8949 18.7944 50.1028 18.5865C50.3523 18.337 50.477 17.7965 50.477 16.9649V5.61338C50.477 4.78176 50.3523 4.26201 50.1028 4.0541C49.8949 3.80462 49.3751 3.67988 48.5435 3.67988H42.743Z" fill="white"/>
<path d="M71.0755 0V3.67988H64.8384V38.7947H60.5972V3.67988H54.3601V0H71.0755Z" fill="white"/>
<path d="M75.7109 0H82.0727C85.3576 0 87 1.64243 87 4.9273V33.8674C87 37.1522 85.3576 38.7947 82.0727 38.7947H75.7109C72.426 38.7947 70.7836 37.1522 70.7836 33.8674V4.9273C70.7836 1.64243 72.426 0 75.7109 0ZM82.7588 33.1813V5.61338C82.7588 4.78176 82.634 4.26201 82.3846 4.0541C82.1351 3.80462 81.6153 3.67988 80.8253 3.67988H76.9583C76.1683 3.67988 75.6485 3.80462 75.399 4.0541C75.1495 4.26201 75.0248 4.78176 75.0248 5.61338V33.1813C75.0248 34.0129 75.1495 34.5534 75.399 34.8029C75.6485 35.0108 76.1683 35.1148 76.9583 35.1148H80.8253C81.6153 35.1148 82.1351 35.0108 82.3846 34.8029C82.634 34.5534 82.7588 34.0129 82.7588 33.1813Z" fill="white"/>
</svg>
