<svg width="32" height="21" viewBox="0 0 32 21" fill="none" xmlns="http://www.w3.org/2000/svg">
<path d="M12.7928 6.27812e-07C13.3005 6.72203e-07 13.7358 0.181348 14.0985 0.544042C14.3886 0.906736 14.5337 1.34197 14.5337 1.84975C14.5337 2.43006 14.4249 3.01037 14.2073 3.59068L8.44042 18.4974C8.07773 19.2228 7.71503 19.8031 7.35234 20.2384C6.9171 20.7461 6.22798 21 5.28498 21L1.6943 21C1.11399 21 0.678757 20.7824 0.3886 20.3472C0.0259063 19.9119 -0.0829017 19.3316 0.0621765 18.6062L2.45596 3.15544C2.5285 2.28498 2.81866 1.52332 3.32643 0.870468C3.8342 0.290156 4.59586 -8.87817e-08 5.6114 0L12.7928 6.27812e-07ZM30.2021 2.14979e-06C30.7099 2.19418e-06 31.1451 0.181349 31.5078 0.544044C31.798 0.906738 31.943 1.34197 31.943 1.84975C31.943 2.43006 31.8342 3.01037 31.6166 3.59068L25.8498 18.4974C25.4871 19.2228 25.0881 19.8031 24.6529 20.2384C24.2176 20.7461 23.5648 21 22.6943 21H19.1036C18.5233 21 18.0881 20.7824 17.7979 20.3472C17.4352 19.9119 17.3264 19.3316 17.4715 18.6062L19.8653 3.15544C19.9378 2.28498 20.228 1.52332 20.7358 0.87047C21.2435 0.290158 21.9689 1.43002e-06 22.9119 1.51246e-06L30.2021 2.14979e-06Z" fill="#091242"/>
</svg>
