<svg width="164" height="22" viewBox="0 0 164 22" fill="none" xmlns="http://www.w3.org/2000/svg">
<path d="M20.0118 0L1.85858 0C0.86666 0 0 0.71372 0 1.69399L0 19.8875C0 20.8731 0.86666 21.7515 1.85858 21.7515L20.0065 21.7515C21.0038 21.7515 21.7515 20.8673 21.7515 19.8875L21.7515 1.69399C21.7573 0.71372 21.0038 0 20.0118 0ZM6.74247 18.1309L3.62638 18.1309L3.62638 8.44228L6.74247 8.44228L6.74247 18.1309ZM5.29221 6.96921H5.26987C4.27261 6.96921 3.62686 6.22684 3.62686 5.29755C3.62686 4.35126 4.2896 3.62638 5.3092 3.62638C6.3288 3.62638 6.9527 4.34592 6.97503 5.29755C6.97455 6.22684 6.3288 6.96921 5.29221 6.96921ZM18.1309 18.1309L15.0148 18.1309L15.0148 12.8334C15.0148 11.5642 14.5613 10.6971 13.434 10.6971C12.5726 10.6971 12.0628 11.2797 11.8361 11.8473C11.7511 12.0512 11.7283 12.3289 11.7283 12.6124L11.7283 18.1309L8.61222 18.1309L8.61222 8.44228L11.7283 8.44228L11.7283 9.79058C12.1818 9.14484 12.8902 8.21554 14.5385 8.21554C16.584 8.21554 18.1314 9.56384 18.1314 12.4707L18.1309 18.1309Z" fill="#1C1F35"/>
<path d="M68.3928 2.04128C67.5845 2.39227 66.7292 2.62351 65.854 2.72769C66.7737 2.1895 67.4654 1.33449 67.7993 0.323022C66.9297 0.831139 65.9799 1.18766 64.9907 1.37731C64.5741 0.941026 64.0731 0.593953 63.5181 0.357183C62.9631 0.120414 62.3657 -0.00110692 61.7622 7.59732e-06C59.319 7.59732e-06 57.3418 1.94707 57.3418 4.34725C57.3401 4.6811 57.3784 5.01397 57.4559 5.33872C55.7039 5.25665 53.9884 4.81005 52.4191 4.02749C50.8497 3.24493 49.4612 2.14364 48.3421 0.794086C47.9496 1.45542 47.742 2.20999 47.741 2.97892C47.741 4.48632 48.528 5.81876 49.7164 6.59938C49.0123 6.58268 48.3227 6.39646 47.706 6.05654V6.11037C47.706 8.21894 49.2324 9.97309 51.2527 10.3724C50.8728 10.4736 50.4813 10.5249 50.0881 10.5249C49.8091 10.5254 49.5308 10.4983 49.2571 10.4442C49.8187 12.1714 51.4534 13.4276 53.3897 13.4634C51.8163 14.6752 49.8846 15.3301 47.8981 15.3253C47.5455 15.3247 47.1933 15.3038 46.8431 15.2625C48.8639 16.5519 51.2129 17.234 53.6106 17.2275C61.7528 17.2275 66.201 10.6012 66.201 4.8542C66.201 4.66578 66.1961 4.47735 66.1871 4.29341C67.0505 3.67971 67.7974 2.91706 68.3928 2.04128Z" fill="#1C1F35"/>
<path fill-rule="evenodd" clip-rule="evenodd" d="M116.569 10.811C116.569 4.84084 111.4 0 105.027 0C98.6526 0 93.4844 4.84084 93.4844 10.811C93.4844 16.2069 97.7045 20.6795 103.223 21.4913V13.9371L100.292 13.9371V10.811L103.223 10.811V8.42923C103.223 5.7202 104.947 4.22258 107.583 4.22258C108.846 4.22258 110.167 4.43397 110.167 4.43397L110.167 7.09474L108.711 7.09474C107.278 7.09474 106.829 7.92777 106.829 8.78397V10.811L110.03 10.811L109.519 13.9371L106.83 13.9371V21.4922C112.349 20.6809 116.569 16.2084 116.569 10.811Z" fill="#1C1F35"/>
<path d="M157.484 1.79125C158.717 1.7948 159.899 2.26781 160.771 3.10699C161.643 3.94617 162.135 5.08333 162.139 6.2701V15.2268C162.135 16.4136 161.643 17.5508 160.771 18.39C159.899 19.2291 158.717 19.7022 157.484 19.7057L148.176 19.7057C146.943 19.7022 145.761 19.2291 144.889 18.39C144.017 17.5508 143.525 16.4136 143.522 15.2268V6.2701C143.525 5.08333 144.017 3.94617 144.889 3.10699C145.761 2.26781 146.943 1.7948 148.176 1.79125L157.484 1.79125ZM157.484 0L148.176 0C144.592 0 141.66 2.82147 141.66 6.2701L141.66 15.2268C141.66 18.6755 144.592 21.4969 148.176 21.4969L157.484 21.4969C161.068 21.4969 164 18.6755 164 15.2268V6.2701C164 2.82147 161.068 0 157.484 0Z" fill="#1C1F35"/>
<path d="M158.88 6.2705C158.604 6.2705 158.334 6.1917 158.105 6.04407C157.875 5.89644 157.696 5.6866 157.59 5.4411C157.485 5.1956 157.457 4.92545 157.511 4.66483C157.565 4.4042 157.698 4.1648 157.893 3.9769C158.088 3.789 158.337 3.66104 158.608 3.6092C158.879 3.55736 159.16 3.58396 159.415 3.68566C159.67 3.78735 159.888 3.95955 160.041 4.1805C160.195 4.40145 160.277 4.66121 160.277 4.92694C160.277 5.10349 160.241 5.27837 160.171 5.44155C160.101 5.60473 159.998 5.75299 159.868 5.87783C159.739 6.00266 159.585 6.10162 159.415 6.169C159.246 6.23639 159.064 6.27088 158.88 6.2705ZM152.83 7.16589C153.567 7.16589 154.286 7.37603 154.899 7.76973C155.511 8.16343 155.988 8.72302 156.27 9.37772C156.552 10.0324 156.626 10.7528 156.482 11.4479C156.338 12.1429 155.984 12.7813 155.463 13.2824C154.942 13.7835 154.279 14.1248 153.557 14.263C152.834 14.4013 152.086 14.3303 151.405 14.0591C150.725 13.7879 150.143 13.3287 149.734 12.7395C149.325 12.1503 149.107 11.4575 149.107 10.7489C149.108 9.79892 149.5 8.88816 150.198 8.21644C150.896 7.54472 151.843 7.1669 152.83 7.16589ZM152.83 5.37463C151.726 5.37463 150.646 5.68983 149.727 6.28036C148.809 6.87089 148.093 7.71023 147.67 8.69224C147.248 9.67425 147.137 10.7548 147.353 11.7973C147.568 12.8398 148.1 13.7974 148.881 14.549C149.662 15.3006 150.657 15.8125 151.741 16.0198C152.824 16.2272 153.947 16.1208 154.967 15.714C155.988 15.3073 156.86 14.6184 157.474 13.7346C158.088 12.8508 158.415 11.8118 158.415 10.7489C158.415 9.32354 157.827 7.95658 156.779 6.94871C155.732 5.94085 154.311 5.37463 152.83 5.37463Z" fill="#1C1F35"/>
</svg>
