<svg width="71" height="22" viewBox="0 0 71 22" fill="none" xmlns="http://www.w3.org/2000/svg">
<path fill-rule="evenodd" clip-rule="evenodd" d="M23.2428 10.8853C23.2428 4.87409 18.0391 0 11.6214 0C5.2037 0 0 4.87409 0 10.8853C0 16.3182 4.24908 20.8216 9.80558 21.6389L9.80558 14.0328L6.85405 14.0328L6.85405 10.8853L9.80558 10.8853L9.80558 8.48714C9.80558 5.75949 11.541 4.25159 14.1953 4.25159C15.4669 4.25159 16.7971 4.46443 16.7971 4.46443L16.7971 7.14348L15.3309 7.14348C13.8881 7.14348 13.4368 7.98223 13.4368 8.84431L13.4368 10.8853L16.6596 10.8853L16.145 14.0328L13.4373 14.0328L13.4373 21.6399C18.9938 20.823 23.2428 16.3197 23.2428 10.8853Z" fill="#1C1F35"/>
<path d="M64.4393 1.80356C65.6811 1.80713 66.871 2.28339 67.749 3.12834C68.6271 3.97328 69.122 5.11825 69.1257 6.31318L69.1257 15.3314C69.122 16.5264 68.6271 17.6713 67.749 18.5163C66.871 19.3612 65.6811 19.8375 64.4393 19.8411L55.0675 19.8411C53.8257 19.8375 52.6359 19.3612 51.7578 18.5163C50.8797 17.6713 50.3848 16.5264 50.3811 15.3314L50.3811 6.31318C50.3848 5.11825 50.8797 3.97328 51.7578 3.12834C52.6359 2.28339 53.8257 1.80713 55.0675 1.80356L64.4393 1.80356ZM64.4393 0L55.0675 0C51.4591 0 48.5068 2.84086 48.5068 6.31318L48.5068 15.3314C48.5068 18.8038 51.4591 21.6446 55.0675 21.6446L64.4393 21.6446C68.0478 21.6446 71 18.8038 71 15.3314V6.31318C71 2.84086 68.0478 0 64.4393 0Z" fill="#1C1F35"/>
<path d="M65.8452 6.31358C65.5672 6.31358 65.2954 6.23424 65.0642 6.08559C64.833 5.93694 64.6528 5.72567 64.5464 5.47848C64.44 5.23129 64.4122 4.95929 64.4664 4.69687C64.5206 4.43446 64.6545 4.19341 64.8511 4.00422C65.0478 3.81503 65.2982 3.68619 65.5709 3.63399C65.8436 3.5818 66.1263 3.60858 66.3832 3.71097C66.6401 3.81336 66.8596 3.98675 67.0141 4.20922C67.1686 4.43168 67.251 4.69323 67.251 4.96079C67.2514 5.13855 67.2153 5.31463 67.1448 5.47893C67.0743 5.64323 66.9708 5.79251 66.8402 5.91821C66.7095 6.0439 66.5544 6.14353 66.3837 6.21138C66.2129 6.27923 66.0299 6.31396 65.8452 6.31358ZM59.7535 7.21511C60.495 7.21511 61.2198 7.4267 61.8363 7.8231C62.4529 8.21951 62.9334 8.78294 63.2171 9.44214C63.5009 10.1013 63.5751 10.8267 63.4305 11.5265C63.2858 12.2263 62.9288 12.8691 62.4044 13.3737C61.8801 13.8782 61.2121 14.2218 60.4849 14.361C59.7576 14.5002 59.0038 14.4287 58.3188 14.1557C57.6337 13.8826 57.0482 13.4203 56.6363 12.827C56.2243 12.2337 56.0044 11.5362 56.0044 10.8227C56.0055 9.86623 56.4008 8.94922 57.1037 8.27288C57.8065 7.59655 58.7595 7.21614 59.7535 7.21511ZM59.7535 5.41156C58.6413 5.41156 57.5541 5.72892 56.6293 6.3235C55.7046 6.91809 54.9838 7.76319 54.5582 8.75195C54.1326 9.74071 54.0213 10.8287 54.2382 11.8784C54.4552 12.928 54.9908 13.8922 55.7772 14.649C56.5636 15.4057 57.5656 15.9211 58.6564 16.1299C59.7472 16.3387 60.8779 16.2315 61.9054 15.822C62.9329 15.4124 63.8112 14.7188 64.4291 13.829C65.047 12.9391 65.3768 11.8929 65.3768 10.8227C65.3768 9.38758 64.7843 8.01124 63.7297 6.99645C62.6752 5.98166 61.2449 5.41156 59.7535 5.41156Z" fill="#1C1F35"/>
</svg>
