<svg width="24" height="26" viewBox="0 0 24 26" fill="none" xmlns="http://www.w3.org/2000/svg">
<path d="M22.9998 18.5367V7.46289C22.999 7.30293 22.9551 7.14603 22.8726 7.008C22.7901 6.86998 22.672 6.75571 22.53 6.67672L12.4469 1.11735C12.311 1.04046 12.1569 0.999984 12 0.999984C11.8431 0.999984 11.689 1.04046 11.5531 1.11735L1.46997 6.67672C1.32806 6.75571 1.20991 6.86998 1.12743 7.008C1.04495 7.14603 1.00106 7.30293 1.00018 7.46289V18.5367C1.00106 18.6967 1.04495 18.8536 1.12743 18.9916C1.20991 19.1296 1.32806 19.2439 1.46997 19.3229L11.5531 24.8822C11.689 24.9591 11.8431 24.9996 12 24.9996C12.1569 24.9996 12.311 24.9591 12.4469 24.8822L22.53 19.3229C22.672 19.2439 22.7901 19.1296 22.8726 18.9916C22.9551 18.8536 22.999 18.6967 22.9998 18.5367V18.5367Z" stroke="#1C1F35" stroke-width="2" stroke-linecap="round" stroke-linejoin="round"/>
<path d="M17.9999 15.9997V10.0851L7.00009 3.99994" stroke="#1C1F35" stroke-width="2" stroke-linecap="round" stroke-linejoin="round"/>
<path d="M22.9998 6.99989L12.1043 12.9998L1.00018 6.99989" stroke="#1C1F35" stroke-width="2" stroke-linecap="round" stroke-linejoin="round"/>
<path d="M12 12.9998V24.9996" stroke="#1C1F35" stroke-width="2" stroke-linecap="round" stroke-linejoin="round"/>
</svg>
