<svg width="65" height="80" viewBox="0 0 65 80" fill="none" xmlns="http://www.w3.org/2000/svg">
<path d="M64.5 42C64.5 59.9565 50.1659 74.5 32.5 74.5C14.8341 74.5 0.5 59.9565 0.5 42C0.5 24.0435 14.8341 9.5 32.5 9.5C50.1659 9.5 64.5 24.0435 64.5 42Z" fill="#FFE6A5" stroke="#1C1F35"/>
<path d="M48.5 13.5C48.5 20.6627 42.4731 26.5 35 26.5C27.5269 26.5 21.5 20.6627 21.5 13.5C21.5 6.33728 27.5269 0.5 35 0.5C42.4731 0.5 48.5 6.33728 48.5 13.5Z" fill="#FFE6A5" stroke="#1C1F35"/>
<path d="M60.5 66.5C60.5 73.6627 54.4731 79.5 47 79.5C39.5269 79.5 33.5 73.6627 33.5 66.5C33.5 59.3373 39.5269 53.5 47 53.5C54.4731 53.5 60.5 59.3373 60.5 66.5Z" fill="#FFE6A5" stroke="#1C1F35"/>
<path d="M35.0261 20.9304C39.0122 20.9304 42.2435 17.6991 42.2435 13.713C42.2435 9.72694 39.0122 6.49561 35.0261 6.49561C31.0401 6.49561 27.8087 9.72694 27.8087 13.713C27.8087 17.6991 31.0401 20.9304 35.0261 20.9304Z" stroke="#1C1F35" stroke-linecap="round" stroke-linejoin="round"/>
<path d="M28.3639 11.4923H41.6883" stroke="#1C1F35" stroke-linecap="round" stroke-linejoin="round"/>
<path d="M28.3639 15.9337H41.6883" stroke="#1C1F35" stroke-linecap="round" stroke-linejoin="round"/>
<path d="M35.0261 20.3752C36.5592 20.3752 37.802 17.3924 37.802 13.713C37.802 10.0336 36.5592 7.0508 35.0261 7.0508C33.493 7.0508 32.2502 10.0336 32.2502 13.713C32.2502 17.3924 33.493 20.3752 35.0261 20.3752Z" stroke="#1C1F35" stroke-linecap="round" stroke-linejoin="round"/>
<path d="M44.0131 47.3867L55.4294 40.4743" stroke="#1C1F35" stroke-linecap="round" stroke-linejoin="round"/>
<path d="M42.1451 48.3809L36.9805 51.3627" stroke="#1C1F35" stroke-linecap="round" stroke-linejoin="round"/>
<path d="M9.52037 46.9932L17.2363 54.2267C18.2651 55.1923 19.5778 55.7997 20.979 55.9584C22.3803 56.1172 23.7953 55.8188 25.0136 55.1078L56 37.0752L52.1932 32.4032C51.2029 31.1923 49.8128 30.3759 48.2739 30.1015C46.7349 29.8272 45.1488 30.113 43.8019 30.9073L34.7147 36.2556L22.4348 32.1573L19.0578 33.6122C18.8052 33.7206 18.5838 33.8909 18.4142 34.1075C18.2446 34.3241 18.1322 34.5799 18.0874 34.8514C18.0425 35.1229 18.0667 35.4014 18.1576 35.6611C18.2485 35.9208 18.4032 36.1535 18.6075 36.3375L24.8908 41.9932L19.1601 45.2719L13.4295 42.8129L9.9911 44.2883C9.74095 44.3959 9.52154 44.5642 9.35273 44.7781C9.18392 44.9919 9.07104 45.2446 9.0243 45.5131C8.97757 45.7817 8.99845 46.0576 9.08507 46.3161C9.17169 46.5745 9.3213 46.8072 9.52037 46.9932V46.9932Z" stroke="#1C1F35" stroke-linecap="round" stroke-linejoin="round"/>
<path d="M22.7484 52.6577L34.1647 45.7453" stroke="#1C1F35" stroke-linecap="round" stroke-linejoin="round"/>
<path d="M53.513 70.3391V63.6787C53.5125 63.5825 53.4866 63.4881 53.4379 63.4051C53.3892 63.3221 53.3194 63.2533 53.2356 63.2058L47.2813 59.8621C47.201 59.8158 47.11 59.7915 47.0174 59.7915C46.9247 59.7915 46.8337 59.8158 46.7535 59.8621L40.7991 63.2058C40.7153 63.2533 40.6456 63.3221 40.5969 63.4051C40.5482 63.4881 40.5222 63.5825 40.5217 63.6787V70.3391C40.5222 70.4353 40.5482 70.5297 40.5969 70.6127C40.6456 70.6957 40.7153 70.7645 40.7991 70.812L46.7535 74.1557C46.8337 74.2019 46.9247 74.2263 47.0174 74.2263C47.11 74.2263 47.201 74.2019 47.2813 74.1557L53.2356 70.812C53.3194 70.7645 53.3892 70.6957 53.4379 70.6127C53.4866 70.5297 53.5125 70.4353 53.513 70.3391V70.3391Z" stroke="#1C1F35" stroke-linecap="round" stroke-linejoin="round"/>
<path d="M53.513 63.4002L47.079 67.0089L40.5217 63.4002" stroke="#1C1F35" stroke-linecap="round" stroke-linejoin="round"/>
<path d="M47.0174 67.0089V74.2263" stroke="#1C1F35" stroke-linecap="round" stroke-linejoin="round"/>
</svg>
