<svg width="118" height="22" viewBox="0 0 118 22" fill="none" xmlns="http://www.w3.org/2000/svg">
<path d="M21.7048 2.05597C20.8906 2.40949 20.0292 2.64239 19.1477 2.74732C20.0741 2.20526 20.7707 1.3441 21.107 0.325347C20.2312 0.83712 19.2746 1.1962 18.2782 1.38722C17.8586 0.947798 17.354 0.598227 16.795 0.359754C16.236 0.12128 15.6343 -0.00111489 15.0265 7.65199e-06C12.5657 7.65199e-06 10.5743 1.96108 10.5743 4.37853C10.5726 4.71479 10.6111 5.05005 10.6892 5.37714C8.9246 5.29448 7.19674 4.84466 5.61611 4.05647C4.03548 3.26828 2.6369 2.15907 1.50984 0.7998C1.11444 1.4659 0.905331 2.22589 0.904367 3.00036C0.904367 4.51861 1.69704 5.86063 2.89397 6.64687C2.18483 6.63005 1.49021 6.4425 0.869097 6.10012L0.869097 6.15434C0.869097 8.27809 2.40652 10.0449 4.44135 10.447C4.0587 10.5489 3.66439 10.6006 3.26838 10.6006C2.98739 10.6011 2.70703 10.5739 2.43139 10.5193C2.99707 12.259 4.64347 13.5242 6.59374 13.5603C5.00901 14.7808 3.06337 15.4404 1.06263 15.4356C0.707494 15.435 0.352687 15.4139 0 15.3723C2.03536 16.671 4.4013 17.358 6.81621 17.3514C15.017 17.3514 19.4972 10.6775 19.4972 4.88913C19.4972 4.69935 19.4923 4.50957 19.4832 4.32431C20.3528 3.70619 21.1051 2.93805 21.7048 2.05597Z" fill="#1C1F35"/>
<path fill-rule="evenodd" clip-rule="evenodd" d="M70.2273 10.8888C70.2273 4.87567 65.022 0 58.6022 0C52.1823 0 46.977 4.87567 46.977 10.8888C46.977 16.3235 51.2274 20.8283 56.7857 21.6459L56.7857 14.0374L53.8332 14.0374V10.8888L56.7857 10.8888V8.48989C56.7857 5.76136 58.5217 4.25297 61.1768 4.25297C62.4488 4.25297 63.7795 4.46588 63.7795 4.46588V7.1458L62.3129 7.1458C60.8696 7.1458 60.4181 7.98482 60.4181 8.84718V10.8888L63.642 10.8888L63.1272 14.0374L60.4186 14.0374L60.4186 21.6469C65.9769 20.8298 70.2273 16.325 70.2273 10.8888Z" fill="#1C1F35"/>
<path d="M111.437 1.80414C112.679 1.80771 113.87 2.28413 114.748 3.12935C115.626 3.97457 116.121 5.11991 116.125 6.31522L116.125 15.3364C116.121 16.5317 115.626 17.6771 114.748 18.5223C113.87 19.3675 112.679 19.8439 111.437 19.8475L102.062 19.8475C100.82 19.8439 99.6299 19.3675 98.7516 18.5223C97.8732 17.6771 97.3781 16.5317 97.3744 15.3364L97.3744 6.31522C97.3781 5.11991 97.8732 3.97457 98.7516 3.12935C99.6299 2.28413 100.82 1.80771 102.062 1.80414L111.437 1.80414ZM111.437 0L102.062 0C98.4527 0 95.4995 2.84178 95.4995 6.31522V15.3364C95.4995 18.8099 98.4527 21.6516 102.062 21.6516L111.437 21.6516C115.047 21.6516 118 18.8099 118 15.3364L118 6.31522C118 2.84178 115.047 0 111.437 0Z" fill="#1C1F35"/>
<path d="M112.844 6.31563C112.565 6.31563 112.293 6.23626 112.062 6.08757C111.831 5.93887 111.651 5.72753 111.544 5.48026C111.438 5.23299 111.41 4.9609 111.464 4.6984C111.519 4.4359 111.652 4.19477 111.849 4.00552C112.046 3.81627 112.296 3.68739 112.569 3.63517C112.842 3.58296 113.125 3.60976 113.382 3.71218C113.639 3.8146 113.858 3.98805 114.013 4.21058C114.167 4.43312 114.25 4.69475 114.25 4.9624C114.25 5.14021 114.214 5.31635 114.144 5.48071C114.073 5.64506 113.969 5.79439 113.839 5.92013C113.708 6.04586 113.553 6.14552 113.382 6.2134C113.211 6.28127 113.028 6.31601 112.844 6.31563ZM106.75 7.21746C107.492 7.21746 108.217 7.42911 108.833 7.82564C109.45 8.22218 109.931 8.78579 110.215 9.44521C110.498 10.1046 110.573 10.8302 110.428 11.5303C110.283 12.2303 109.926 12.8733 109.402 13.378C108.877 13.8827 108.209 14.2264 107.481 14.3657C106.754 14.5049 106 14.4334 105.315 14.1603C104.629 13.8872 104.044 13.4246 103.632 12.8311C103.219 12.2377 103 11.54 103 10.8262C103.001 9.86943 103.396 8.95212 104.099 8.27557C104.802 7.59902 105.755 7.21848 106.75 7.21746ZM106.75 5.41331C105.637 5.41331 104.55 5.73077 103.625 6.32555C102.7 6.92033 101.979 7.76571 101.553 8.75479C101.127 9.74387 101.016 10.8322 101.233 11.8822C101.45 12.9322 101.986 13.8967 102.772 14.6537C103.559 15.4107 104.561 15.9263 105.652 16.1351C106.744 16.344 107.875 16.2368 108.902 15.8271C109.93 15.4174 110.809 14.7236 111.427 13.8335C112.045 12.9433 112.375 11.8968 112.375 10.8262C112.375 9.39063 111.782 8.01384 110.727 6.99872C109.672 5.9836 108.242 5.41331 106.75 5.41331Z" fill="#1C1F35"/>
</svg>
